<mxfile host="Electron" agent="Mozilla/5.0 (Windows NT 10.0; Win64; x64) AppleWebKit/537.36 (KHTML, like Gecko) draw.io/28.1.2 Chrome/138.0.7204.243 Electron/37.4.0 Safari/537.36" version="28.1.2">
  <diagram name="Page-1" id="Pi9a8pj-JhWTPVvKCuRl">
    <mxGraphModel dx="856" dy="513" grid="1" gridSize="10" guides="1" tooltips="1" connect="1" arrows="1" fold="1" page="1" pageScale="1" pageWidth="850" pageHeight="1100" background="light-dark(#FFFFFF,#FFFFFF)" math="0" shadow="0">
      <root>
        <mxCell id="0" />
        <mxCell id="1" parent="0" />
        <mxCell id="wgApOZX3ujIAfF_W39Ef-2" value="crm_cust_info" style="swimlane;fontStyle=0;childLayout=stackLayout;horizontal=1;startSize=30;horizontalStack=0;resizeParent=1;resizeParentMax=0;resizeLast=0;collapsible=1;marginBottom=0;whiteSpace=wrap;html=1;rounded=1;fillColor=#1BA1E2;fontColor=#ffffff;strokeColor=#006EAF;" parent="1" vertex="1">
          <mxGeometry x="310" y="170" width="140" height="90" as="geometry" />
        </mxCell>
        <mxCell id="wgApOZX3ujIAfF_W39Ef-21" value="&lt;font color=&quot;#0d0c0c&quot;&gt;cst_key&lt;/font&gt;" style="text;html=1;align=center;verticalAlign=middle;resizable=0;points=[];autosize=1;strokeColor=none;fillColor=none;" parent="wgApOZX3ujIAfF_W39Ef-2" vertex="1">
          <mxGeometry y="30" width="140" height="30" as="geometry" />
        </mxCell>
        <mxCell id="wgApOZX3ujIAfF_W39Ef-69" value="&lt;font style=&quot;color: light-dark(rgb(0, 0, 0), rgb(13, 12, 12));&quot;&gt;cust_id&lt;/font&gt;" style="text;html=1;align=center;verticalAlign=middle;resizable=0;points=[];autosize=1;strokeColor=none;fillColor=none;" parent="wgApOZX3ujIAfF_W39Ef-2" vertex="1">
          <mxGeometry y="60" width="140" height="30" as="geometry" />
        </mxCell>
        <mxCell id="wgApOZX3ujIAfF_W39Ef-6" value="crm_prd_info" style="swimlane;fontStyle=0;childLayout=stackLayout;horizontal=1;startSize=30;horizontalStack=0;resizeParent=1;resizeParentMax=0;resizeLast=0;collapsible=1;marginBottom=0;whiteSpace=wrap;html=1;rounded=1;fillColor=#1ba1e2;fontColor=#ffffff;strokeColor=#006EAF;" parent="1" vertex="1">
          <mxGeometry x="310" y="280" width="140" height="60" as="geometry" />
        </mxCell>
        <mxCell id="wgApOZX3ujIAfF_W39Ef-23" style="edgeStyle=orthogonalEdgeStyle;rounded=0;orthogonalLoop=1;jettySize=auto;html=1;" parent="wgApOZX3ujIAfF_W39Ef-6" edge="1">
          <mxGeometry relative="1" as="geometry">
            <mxPoint x="70" y="100" as="targetPoint" />
            <mxPoint x="70" y="60" as="sourcePoint" />
          </mxGeometry>
        </mxCell>
        <mxCell id="wgApOZX3ujIAfF_W39Ef-75" value="&lt;font color=&quot;#0d0c0c&quot;&gt;prd_key&lt;/font&gt;" style="text;html=1;align=center;verticalAlign=middle;resizable=0;points=[];autosize=1;strokeColor=none;fillColor=none;" parent="wgApOZX3ujIAfF_W39Ef-6" vertex="1">
          <mxGeometry y="30" width="140" height="30" as="geometry" />
        </mxCell>
        <mxCell id="wgApOZX3ujIAfF_W39Ef-14" style="edgeStyle=orthogonalEdgeStyle;rounded=0;orthogonalLoop=1;jettySize=auto;html=1;entryX=0;entryY=0.5;entryDx=0;entryDy=0;" parent="1" source="wgApOZX3ujIAfF_W39Ef-7" target="wgApOZX3ujIAfF_W39Ef-2" edge="1">
          <mxGeometry relative="1" as="geometry" />
        </mxCell>
        <mxCell id="wgApOZX3ujIAfF_W39Ef-15" style="edgeStyle=orthogonalEdgeStyle;rounded=0;orthogonalLoop=1;jettySize=auto;html=1;entryX=0;entryY=0.5;entryDx=0;entryDy=0;strokeColor=light-dark(#000000,#0D0C0C);" parent="1" source="wgApOZX3ujIAfF_W39Ef-7" target="wgApOZX3ujIAfF_W39Ef-6" edge="1">
          <mxGeometry relative="1" as="geometry">
            <Array as="points">
              <mxPoint x="270" y="290" />
              <mxPoint x="270" y="310" />
            </Array>
          </mxGeometry>
        </mxCell>
        <mxCell id="wgApOZX3ujIAfF_W39Ef-24" style="edgeStyle=orthogonalEdgeStyle;rounded=0;orthogonalLoop=1;jettySize=auto;html=1;exitX=1;exitY=1;exitDx=0;exitDy=0;" parent="1" source="wgApOZX3ujIAfF_W39Ef-7" edge="1">
          <mxGeometry relative="1" as="geometry">
            <mxPoint x="230" y="310" as="targetPoint" />
          </mxGeometry>
        </mxCell>
        <mxCell id="wgApOZX3ujIAfF_W39Ef-27" value="" style="edgeStyle=orthogonalEdgeStyle;rounded=0;orthogonalLoop=1;jettySize=auto;html=1;" parent="1" source="wgApOZX3ujIAfF_W39Ef-7" edge="1">
          <mxGeometry relative="1" as="geometry">
            <mxPoint x="15" y="250" as="targetPoint" />
          </mxGeometry>
        </mxCell>
        <mxCell id="wgApOZX3ujIAfF_W39Ef-7" value="crm_sales_details" style="swimlane;fontStyle=0;childLayout=stackLayout;horizontal=1;startSize=30;horizontalStack=0;resizeParent=1;resizeParentMax=0;resizeLast=0;collapsible=1;marginBottom=0;whiteSpace=wrap;html=1;rounded=1;fillColor=#1ba1e2;fontColor=#ffffff;strokeColor=#006EAF;" parent="1" vertex="1">
          <mxGeometry x="100" y="220" width="130" height="90" as="geometry" />
        </mxCell>
        <mxCell id="wgApOZX3ujIAfF_W39Ef-68" value="&lt;font style=&quot;color: light-dark(rgb(0, 0, 0), rgb(13, 12, 12));&quot;&gt;sls_cust_key&lt;/font&gt;" style="text;html=1;align=center;verticalAlign=middle;resizable=0;points=[];autosize=1;strokeColor=none;fillColor=none;" parent="wgApOZX3ujIAfF_W39Ef-7" vertex="1">
          <mxGeometry y="30" width="130" height="30" as="geometry" />
        </mxCell>
        <mxCell id="wgApOZX3ujIAfF_W39Ef-20" value="&lt;font color=&quot;#0d0c0c&quot;&gt;sls_prd_key&lt;/font&gt;" style="text;html=1;align=center;verticalAlign=middle;resizable=0;points=[];autosize=1;strokeColor=none;fillColor=none;" parent="wgApOZX3ujIAfF_W39Ef-7" vertex="1">
          <mxGeometry y="60" width="130" height="30" as="geometry" />
        </mxCell>
        <mxCell id="wgApOZX3ujIAfF_W39Ef-8" value="erp_px_cat_gfv2" style="swimlane;fontStyle=0;childLayout=stackLayout;horizontal=1;startSize=30;horizontalStack=0;resizeParent=1;resizeParentMax=0;resizeLast=0;collapsible=1;marginBottom=0;whiteSpace=wrap;html=1;rounded=1;fillColor=#a0522d;fontColor=#ffffff;strokeColor=#6D1F00;" parent="1" vertex="1">
          <mxGeometry x="600" y="350" width="140" height="80" as="geometry" />
        </mxCell>
        <mxCell id="wgApOZX3ujIAfF_W39Ef-89" value="&lt;font color=&quot;#0d0c0c&quot;&gt;id&lt;/font&gt;" style="text;html=1;align=center;verticalAlign=middle;resizable=0;points=[];autosize=1;strokeColor=none;fillColor=none;" parent="wgApOZX3ujIAfF_W39Ef-8" vertex="1">
          <mxGeometry y="30" width="140" height="30" as="geometry" />
        </mxCell>
        <mxCell id="8w7OOvTdAevlpBeiL6JC-19" value="&lt;b&gt;&lt;font style=&quot;color: light-dark(rgb(255, 255, 255), rgb(255, 255, 255));&quot;&gt;PRODUCT&lt;/font&gt;&lt;/b&gt;" style="text;html=1;strokeColor=#B20000;fillColor=#e51400;align=center;verticalAlign=middle;whiteSpace=wrap;overflow=hidden;fontColor=#ffffff;" parent="wgApOZX3ujIAfF_W39Ef-8" vertex="1">
          <mxGeometry y="60" width="140" height="20" as="geometry" />
        </mxCell>
        <mxCell id="wgApOZX3ujIAfF_W39Ef-9" value="erp_loc_a101" style="swimlane;fontStyle=0;childLayout=stackLayout;horizontal=1;startSize=30;horizontalStack=0;resizeParent=1;resizeParentMax=0;resizeLast=0;collapsible=1;marginBottom=0;whiteSpace=wrap;html=1;rounded=1;fillColor=#a0522d;fontColor=#ffffff;strokeColor=#6D1F00;" parent="1" vertex="1">
          <mxGeometry x="590" y="150" width="140" height="60" as="geometry" />
        </mxCell>
        <mxCell id="wgApOZX3ujIAfF_W39Ef-91" value="&lt;font color=&quot;#0d0c0c&quot;&gt;cid&lt;/font&gt;" style="text;html=1;align=center;verticalAlign=middle;resizable=0;points=[];autosize=1;strokeColor=none;fillColor=none;" parent="wgApOZX3ujIAfF_W39Ef-9" vertex="1">
          <mxGeometry y="30" width="140" height="30" as="geometry" />
        </mxCell>
        <mxCell id="wgApOZX3ujIAfF_W39Ef-10" value="erp_cust_az12" style="swimlane;fontStyle=0;childLayout=stackLayout;horizontal=1;startSize=30;horizontalStack=0;resizeParent=1;resizeParentMax=0;resizeLast=0;collapsible=1;marginBottom=0;whiteSpace=wrap;html=1;rounded=1;fillColor=#a0522d;fontColor=#ffffff;strokeColor=#6D1F00;" parent="1" vertex="1">
          <mxGeometry x="590" y="260" width="140" height="60" as="geometry" />
        </mxCell>
        <mxCell id="wgApOZX3ujIAfF_W39Ef-90" value="&lt;font color=&quot;#0d0c0c&quot;&gt;cid&lt;/font&gt;" style="text;html=1;align=center;verticalAlign=middle;resizable=0;points=[];autosize=1;strokeColor=none;fillColor=none;" parent="wgApOZX3ujIAfF_W39Ef-10" vertex="1">
          <mxGeometry y="30" width="140" height="30" as="geometry" />
        </mxCell>
        <mxCell id="wgApOZX3ujIAfF_W39Ef-72" style="edgeStyle=orthogonalEdgeStyle;rounded=0;orthogonalLoop=1;jettySize=auto;html=1;strokeColor=light-dark(#000000,#0D0C0C);" parent="1" source="wgApOZX3ujIAfF_W39Ef-68" edge="1">
          <mxGeometry relative="1" as="geometry">
            <mxPoint x="309" y="250" as="targetPoint" />
            <Array as="points">
              <mxPoint x="270" y="265" />
              <mxPoint x="270" y="250" />
              <mxPoint x="309" y="250" />
            </Array>
          </mxGeometry>
        </mxCell>
        <mxCell id="wgApOZX3ujIAfF_W39Ef-77" style="edgeStyle=orthogonalEdgeStyle;rounded=0;orthogonalLoop=1;jettySize=auto;html=1;exitX=0;exitY=0.75;exitDx=0;exitDy=0;entryX=1;entryY=0.467;entryDx=0;entryDy=0;entryPerimeter=0;strokeColor=light-dark(#000000,#0D0C0C);" parent="1" source="wgApOZX3ujIAfF_W39Ef-8" target="wgApOZX3ujIAfF_W39Ef-75" edge="1">
          <mxGeometry relative="1" as="geometry" />
        </mxCell>
        <mxCell id="wgApOZX3ujIAfF_W39Ef-83" style="edgeStyle=orthogonalEdgeStyle;rounded=0;orthogonalLoop=1;jettySize=auto;html=1;entryX=0;entryY=0.75;entryDx=0;entryDy=0;exitX=0;exitY=0.75;exitDx=0;exitDy=0;" parent="1" source="wgApOZX3ujIAfF_W39Ef-10" target="wgApOZX3ujIAfF_W39Ef-9" edge="1">
          <mxGeometry relative="1" as="geometry">
            <Array as="points">
              <mxPoint x="530" y="265" />
              <mxPoint x="530" y="195" />
            </Array>
          </mxGeometry>
        </mxCell>
        <mxCell id="wgApOZX3ujIAfF_W39Ef-85" style="edgeStyle=orthogonalEdgeStyle;rounded=0;orthogonalLoop=1;jettySize=auto;html=1;entryX=0;entryY=0.75;entryDx=0;entryDy=0;strokeColor=light-dark(#000000,#0D0C0C);" parent="1" source="wgApOZX3ujIAfF_W39Ef-21" target="wgApOZX3ujIAfF_W39Ef-9" edge="1">
          <mxGeometry relative="1" as="geometry" />
        </mxCell>
        <mxCell id="wgApOZX3ujIAfF_W39Ef-87" style="edgeStyle=orthogonalEdgeStyle;rounded=0;orthogonalLoop=1;jettySize=auto;html=1;strokeColor=light-dark(#000000,#0D0C0C);entryX=0.29;entryY=0.588;entryDx=0;entryDy=0;entryPerimeter=0;" parent="1" target="8w7OOvTdAevlpBeiL6JC-5" edge="1">
          <mxGeometry relative="1" as="geometry">
            <mxPoint x="449.5" y="240" as="sourcePoint" />
            <mxPoint x="589.5" y="330" as="targetPoint" />
          </mxGeometry>
        </mxCell>
        <mxCell id="8w7OOvTdAevlpBeiL6JC-4" value="" style="rounded=1;whiteSpace=wrap;html=1;fillColor=none;dashed=1;strokeColor=light-dark(#000000, #0b0909);" parent="1" vertex="1">
          <mxGeometry x="80" y="110" width="390" height="290" as="geometry" />
        </mxCell>
        <mxCell id="8w7OOvTdAevlpBeiL6JC-5" value="" style="rounded=1;whiteSpace=wrap;html=1;fillColor=none;strokeColor=light-dark(#000000,#0B0A0A);dashed=1;" parent="1" vertex="1">
          <mxGeometry x="500" y="100" width="310" height="340" as="geometry" />
        </mxCell>
        <mxCell id="8w7OOvTdAevlpBeiL6JC-6" value="&lt;font style=&quot;font-size: 20px;&quot;&gt;CRM&lt;/font&gt;" style="rounded=0;whiteSpace=wrap;html=1;fillColor=#D5E8D4;gradientColor=light-dark(#97d077, #173008);strokeColor=#82b366;" parent="1" vertex="1">
          <mxGeometry x="220" y="90" width="90" height="40" as="geometry" />
        </mxCell>
        <mxCell id="8w7OOvTdAevlpBeiL6JC-7" value="&lt;span style=&quot;font-size: 20px;&quot;&gt;ERP&lt;/span&gt;" style="rounded=0;whiteSpace=wrap;html=1;fillColor=#FF3333;gradientColor=light-dark(#97d077, #173008);strokeColor=#82b366;" parent="1" vertex="1">
          <mxGeometry x="605" y="80" width="90" height="40" as="geometry" />
        </mxCell>
        <mxCell id="8w7OOvTdAevlpBeiL6JC-8" value="Transaction records about sales and orders" style="rounded=0;whiteSpace=wrap;html=1;fillColor=none;fontColor=#000000;" parent="1" vertex="1">
          <mxGeometry x="90" y="190" width="160" height="30" as="geometry" />
        </mxCell>
        <mxCell id="8w7OOvTdAevlpBeiL6JC-9" value="&lt;font style=&quot;color: rgb(0, 0, 0);&quot;&gt;Customer and product history&amp;nbsp;&lt;/font&gt;" style="rounded=0;whiteSpace=wrap;html=1;fillColor=none;fontColor=#000000;" parent="1" vertex="1">
          <mxGeometry x="300" y="350" width="160" height="30" as="geometry" />
        </mxCell>
        <mxCell id="8w7OOvTdAevlpBeiL6JC-10" value="&lt;font color=&quot;#000000&quot;&gt;Customer information&lt;/font&gt;" style="rounded=0;whiteSpace=wrap;html=1;fillColor=none;fontColor=#000000;" parent="1" vertex="1">
          <mxGeometry x="300" y="140" width="160" height="30" as="geometry" />
        </mxCell>
        <mxCell id="8w7OOvTdAevlpBeiL6JC-11" value="&lt;font style=&quot;color: light-dark(rgb(255, 255, 255), rgb(255, 255, 255));&quot;&gt;&lt;b&gt;CUSTOMERS&lt;/b&gt;&lt;/font&gt;" style="text;html=1;strokeColor=#2D7600;fillColor=#60a917;align=center;verticalAlign=middle;whiteSpace=wrap;overflow=hidden;fontColor=#ffffff;" parent="1" vertex="1">
          <mxGeometry x="310" y="250" width="140" height="20" as="geometry" />
        </mxCell>
        <mxCell id="8w7OOvTdAevlpBeiL6JC-12" value="&lt;font color=&quot;#ffffff&quot;&gt;&lt;span style=&quot;font-size: 13px;&quot;&gt;&lt;b&gt;SALES&lt;/b&gt;&lt;/span&gt;&lt;/font&gt;" style="text;html=1;strokeColor=#2D7600;fillColor=#60a917;align=center;verticalAlign=middle;whiteSpace=wrap;overflow=hidden;fontColor=#ffffff;" parent="1" vertex="1">
          <mxGeometry x="100" y="300" width="130" height="20" as="geometry" />
        </mxCell>
        <mxCell id="8w7OOvTdAevlpBeiL6JC-13" value="&lt;b&gt;&lt;font style=&quot;color: light-dark(rgb(255, 255, 255), rgb(255, 255, 255));&quot;&gt;CUSTOMERS&lt;/font&gt;&lt;/b&gt;" style="text;html=1;strokeColor=#2D7600;fillColor=#60a917;align=center;verticalAlign=middle;whiteSpace=wrap;overflow=hidden;fontColor=#ffffff;" parent="1" vertex="1">
          <mxGeometry x="310" y="330" width="140" height="20" as="geometry" />
        </mxCell>
        <mxCell id="8w7OOvTdAevlpBeiL6JC-14" value="&lt;font color=&quot;#000000&quot;&gt;Product Catogory&lt;/font&gt;" style="rounded=0;whiteSpace=wrap;html=1;fillColor=none;fontColor=#000000;strokeColor=none;" parent="1" vertex="1">
          <mxGeometry x="590" y="330" width="160" height="30" as="geometry" />
        </mxCell>
        <mxCell id="8w7OOvTdAevlpBeiL6JC-15" value="&lt;font style=&quot;font-size: 11px;&quot; color=&quot;#000000&quot;&gt;Extra customers infor(birthdate)&lt;/font&gt;" style="rounded=0;whiteSpace=wrap;html=1;fillColor=none;fontColor=#000000;strokeColor=none;" parent="1" vertex="1">
          <mxGeometry x="575" y="230" width="160" height="30" as="geometry" />
        </mxCell>
        <mxCell id="8w7OOvTdAevlpBeiL6JC-16" value="&lt;font color=&quot;#000000&quot;&gt;Location of customers&lt;/font&gt;" style="rounded=0;whiteSpace=wrap;html=1;fillColor=none;fontColor=#000000;strokeColor=none;" parent="1" vertex="1">
          <mxGeometry x="575" y="120" width="160" height="30" as="geometry" />
        </mxCell>
        <mxCell id="8w7OOvTdAevlpBeiL6JC-17" value="&lt;b&gt;&lt;font style=&quot;color: light-dark(rgb(255, 255, 255), rgb(255, 255, 255));&quot;&gt;PRODUCT&lt;/font&gt;&lt;/b&gt;" style="text;html=1;strokeColor=#B20000;fillColor=#e51400;align=center;verticalAlign=middle;whiteSpace=wrap;overflow=hidden;fontColor=#ffffff;" parent="1" vertex="1">
          <mxGeometry x="590" y="200" width="140" height="20" as="geometry" />
        </mxCell>
        <mxCell id="8w7OOvTdAevlpBeiL6JC-18" value="&lt;b&gt;&lt;font style=&quot;color: light-dark(rgb(255, 255, 255), rgb(255, 255, 255));&quot;&gt;PRODUCT&lt;/font&gt;&lt;/b&gt;" style="text;html=1;strokeColor=#B20000;fillColor=#e51400;align=center;verticalAlign=middle;whiteSpace=wrap;overflow=hidden;fontColor=#ffffff;" parent="1" vertex="1">
          <mxGeometry x="590" y="310" width="140" height="20" as="geometry" />
        </mxCell>
      </root>
    </mxGraphModel>
  </diagram>
</mxfile>
